:SAMPLES-PER-SECOND 30
:FULLY-SPECIFIED
:DEGREES
846
root  -38.6238 39.9257 1.22711 -73.247 -87.7688 89.1279
RightUpLeg  -38.5739 -17.9451 3.53794
RightLeg  19.0302 0.0103601 0.230237
RightFoot  4.46584 0.533819 -3.6223
RightToes  5.82063e-011 0 -3.6325e-017
Spine  58.4207 -2.98083 6.03652
Spine1  9.40837 0.382723 -0.485693
HEad  -32.6997 -3.61372 -0.764363
LeftShoulder1  9.0436 -21.7901 -29.5983
LeftArm  -61.4865 -70.1179 10.2662
LeftForeArm  11.6737 -9.19711 -2.02925
LeftHand  -0.244104 0.0205437 5.32207
RightShoulder  2.79023 10.6941 12.6538
RightArm  -36.6269 74.7744 31.1518
RightForeArm  -18.8065 2.89705 3.20838
RightHand  -3.44328 13.4281 -21.0253
LeftUpLeg  -35.6365 14.6393 -6.76838
LeftLeg  14.0709 -4.59308 -2.954
LeftFoot  6.17184 -0.440321 2.61518
LeftToes  1.45487e-011 -6.19069e-011 1.65092e-011
847
root  -38.5506 39.9373 1.33056 -69.4728 -87.7856 85.6572
RightUpLeg  -38.6842 -17.7119 3.27649
RightLeg  18.5065 -0.320831 0.253108
RightFoot  4.81682 0.501683 -3.2989
RightToes  5.82063e-011 0 -3.6325e-017
Spine  59.4643 -2.78976 5.91893
Spine1  9.94423 0.641534 -0.387998
HEad  -32.9655 -4.00379 -0.279119
LeftShoulder1  8.31738 -21.6898 -26.7804
LeftArm  -65.6119 -71.3125 10.624
LeftForeArm  16.3058 -12.6284 -1.45031
LeftHand  -0.244104 0.0205437 5.32207
RightShoulder  2.4507 9.74654 11.3677
RightArm  -36.0022 76.2245 31.8921
RightForeArm  -24.9504 4.89707 3.93259
RightHand  -6.8468 19.3337 -31.7993
LeftUpLeg  -35.5957 13.2801 -6.165
LeftLeg  13.4134 -3.1511 -3.0039
LeftFoot  6.63137 -0.4655 2.68826
LeftToes  1.45487e-011 -6.19069e-011 1.65092e-011
848
root  -38.4986 39.9477 1.44035 -65.3613 -87.8834 81.6551
RightUpLeg  -38.5535 -17.4374 2.99222
RightLeg  18.0166 -0.734094 0.263809
RightFoot  5.10969 0.478125 -3.067
RightToes  5.82063e-011 0 -3.6325e-017
Spine  60.3052 -2.97084 5.82839
Spine1  10.7514 0.637663 -0.754991
HEad  -33.5725 -3.9659 -0.00987825
LeftShoulder1  7.45734 -20.9408 -24.1925
LeftArm  -69.6581 -72.2647 11.1578
LeftForeArm  20.3415 -15.721 -1.45718
LeftHand  -0.244104 0.0205437 5.32207
RightShoulder  2.21161 9.22718 10.1218
RightArm  -37.0221 76.8559 31.7285
RightForeArm  -29.9665 7.37013 4.42925
RightHand  -8.42648 21.6343 -35.3855
LeftUpLeg  -35.5017 12.1964 -5.65901
LeftLeg  13.0313 -2.24562 -3.02208
LeftFoot  6.7914 -0.501333 2.88215
LeftToes  1.45487e-011 -6.19069e-011 1.65092e-011
849
root  -38.4458 39.9508 1.54858 -58.9205 -87.8836 75.3555
RightUpLeg  -38.6524 -17.4138 2.81567
RightLeg  17.7941 -1.04688 0.233421
RightFoot  5.42636 0.478881 -3.00724
RightToes  5.82063e-011 0 -3.6325e-017
Spine  61.0301 -3.38644 5.79691
Spine1  11.186 0.46284 -1.41485
HEad  -34.2337 -3.73291 0.260902
LeftShoulder1  6.80716 -20.2156 -22.3032
LeftArm  -72.8092 -73.0271 12.5855
LeftForeArm  18.3662 -16.9876 -1.82666
LeftHand  -0.244104 0.0205437 5.32207
RightShoulder  2.10442 9.01181 9.49839
RightArm  -39.0421 76.9156 30.1151
RightForeArm  -34.9033 9.71109 5.00712
RightHand  -6.90866 19.5326 -31.5382
LeftUpLeg  -35.5446 11.5478 -5.4832
LeftLeg  12.6765 -1.7307 -3.13954
LeftFoot  7.05406 -0.587816 3.36294
LeftToes  1.45487e-011 -6.19069e-011 1.65092e-011
850
root  -38.374 39.945 1.6504 -52.7662 -87.7194 69.3065
RightUpLeg  -38.9308 -17.634 2.67149
RightLeg  17.8401 -1.09972 0.175894
RightFoot  5.76987 0.472944 -2.87835
RightToes  5.82063e-011 0 -3.6325e-017
Spine  61.6501 -3.80803 5.75548
Spine1  11.3357 0.239191 -2.07078
HEad  -34.8542 -3.45167 0.697198
LeftShoulder1  6.36943 -19.8442 -20.8013
LeftArm  -74.6595 -73.7073 14.3605
LeftForeArm  10.7913 -16.1611 -1.8671
LeftHand  -0.244104 0.0205437 5.32207
RightShoulder  2.07984 9.0049 9.28867
RightArm  -41.5028 76.5587 27.5191
RightForeArm  -40.3725 11.6451 5.52725
RightHand  -4.44593 15.515 -24.6478
LeftUpLeg  -35.6089 11.0911 -5.54466
LeftLeg  12.3275 -1.35245 -3.29972
LeftFoot  7.55261 -0.681896 3.82042
LeftToes  1.45487e-011 -6.19069e-011 1.65092e-011
851
root  -38.2784 39.9277 1.75598 -51.5994 -87.5969 68.0775
RightUpLeg  -39.0846 -17.7701 2.4773
RightLeg  17.8819 -1.00892 0.141702
RightFoot  6.116 0.470057 -2.78601
RightToes  5.82063e-011 0 -3.6325e-017
Spine  62.3381 -4.11925 5.64415
Spine1  11.3528 0.101544 -2.69292
HEad  -35.4723 -3.24056 1.11319
LeftShoulder1  6.08647 -19.7003 -19.6821
LeftArm  -76.3164 -74.3728 16.6277
LeftForeArm  3.39205 -14.1967 -1.51164
LeftHand  -0.244104 0.0205437 5.32207
RightShoulder  2.08044 9.16097 9.06468
RightArm  -44.1679 75.9667 24.9532
RightForeArm  -44.2444 13.0208 5.69291
RightHand  -2.8504 12.5353 -18.7178
LeftUpLeg  -35.6264 10.7292 -5.67762
LeftLeg  12.2046 -1.0741 -3.35027
LeftFoot  7.89428 -0.746871 4.12197
LeftToes  1.45487e-011 -6.19069e-011 1.65092e-011
852
root  -38.1607 39.8999 1.87948 -55.9069 -87.6533 72.2884
RightUpLeg  -39.227 -17.8064 2.3739
RightLeg  17.808 -0.871929 0.176124
RightFoot  6.52288 0.518141 -3.00878
RightToes  5.82063e-011 0 -3.6325e-017
Spine  63.0252 -4.19525 5.52766
Spine1  11.3156 0.166725 -3.09694
HEad  -36.1758 -3.34076 1.28306
LeftShoulder1  6.02014 -19.8053 -19.2476
LeftArm  -78.8095 -74.9015 19.8408
LeftForeArm  -0.308155 -12.4736 -1.1515
LeftHand  -0.244104 0.0205437 5.32207
RightShoulder  2.05748 9.20569 8.79766
RightArm  -47.3273 75.5467 22.0355
RightForeArm  -45.026 13.5831 5.57365
RightHand  -2.05969 11.1504 -14.7805
LeftUpLeg  -35.7835 10.5051 -5.85894
LeftLeg  12.3442 -0.750533 -3.2215
LeftFoot  7.99414 -0.815728 4.49973
LeftToes  1.45487e-011 -6.19069e-011 1.65092e-011
853
root  -38.0159 39.8641 2.02223 -64.0232 -87.7913 80.3773
RightUpLeg  -39.544 -17.8835 2.41125
RightLeg  17.7509 -0.60909 0.277634
RightFoot  7.04566 0.56237 -3.17464
RightToes  5.82063e-011 0 -3.6325e-017
Spine  63.5579 -4.11267 5.49148
Spine1  11.2605 0.360304 -3.28053
HEad  -36.9204 -3.66662 1.3411
LeftShoulder1  6.06883 -20.0348 -19.1961
LeftArm  -81.8487 -75.1913 23.4151
LeftForeArm  -1.48761 -11.6461 -0.998165
LeftHand  -0.244104 0.0205437 5.32207
RightShoulder  2.01843 9.06784 8.64949
RightArm  -51.3419 75.5908 17.6836
RightForeArm  -44.3048 13.2308 5.35999
RightHand  -1.78623 10.6599 -13.2499
LeftUpLeg  -36.1888 10.6249 -6.23107
LeftLeg  12.6436 -0.511502 -3.00365
LeftFoot  8.16833 -0.910314 5.00127
LeftToes  1.45487e-011 -6.19069e-011 1.65092e-011
854
root  -37.8338 39.8149 2.17646 -74.5339 -87.9135 90.7422
RightUpLeg  -39.7621 -17.7704 2.31626
RightLeg  17.7209 -0.317048 0.394609
RightFoot  7.59534 0.529972 -2.86384
RightToes  5.82063e-011 0 -3.6325e-017
Spine  63.8874 -3.96079 5.62158
Spine1  11.3596 0.67503 -3.37
HEad  -37.537 -4.15353 1.47666
LeftShoulder1  6.14392 -20.4469 -19.0511
LeftArm  -84.6815 -75.3598 26.5013
LeftForeArm  -1.98784 -11.2489 -0.885874
LeftHand  -0.244104 0.0205437 5.32207
RightShoulder  1.98906 8.86064 8.68507
RightArm  -56.6057 75.7959 11.5747
RightForeArm  -44.1714 12.4069 5.10471
RightHand  -1.99255 10.9387 -14.4458
LeftUpLeg  -36.692 11.4471 -6.97368
LeftLeg  13.1394 -0.967932 -2.8349
LeftFoot  8.41493 -1.00643 5.48025
LeftToes  1.45487e-011 -6.19069e-011 1.65092e-011
855
root  -37.6107 39.7453 2.34255 -88.2536 -87.9968 104.071
RightUpLeg  -39.6728 -17.2776 1.97809
RightLeg  17.596 -0.264109 0.485142
RightFoot  8.10933 0.517975 -2.69344
RightToes  5.82063e-011 0 -3.6325e-017
Spine  64.0805 -3.81777 5.92038
Spine1  11.6624 1.10085 -3.53748
HEad  -37.9607 -4.74888 1.62577
LeftShoulder1  6.2154 -20.9578 -18.7812
LeftArm  -87.3246 -75.6795 29.2563
LeftForeArm  -2.01144 -10.6992 -0.739542
LeftHand  -0.244104 0.0205437 5.32207
RightShoulder  1.97193 8.69335 8.77501
RightArm  -62.6556 75.7576 5.19105
RightForeArm  -44.9056 11.8792 4.73773
RightHand  -2.48895 11.7284 -17.1163
LeftUpLeg  -37.1905 13.0215 -8.09452
LeftLeg  13.859 -2.27584 -2.74225
LeftFoot  8.47895 -1.10105 6.00033
LeftToes  1.45487e-011 -6.19069e-011 1.65092e-011
856
root  -37.3502 39.6622 2.5299 -105.387 -87.9471 120.745
RightUpLeg  -39.6075 -16.7576 1.70284
RightLeg  17.4514 -0.338169 0.568274
RightFoot  8.72286 0.622219 -3.17385
RightToes  5.82063e-011 0 -3.6325e-017
Spine  64.2101 -3.70568 6.28131
Spine1  11.9807 1.54435 -3.75791
HEad  -38.3395 -5.36035 1.60503
LeftShoulder1  6.24945 -21.2405 -18.6129
LeftArm  -89.9778 -76.3286 32.134
LeftForeArm  -1.78875 -10.1597 -0.785598
LeftHand  -0.244104 0.0205437 5.32207
RightShoulder  1.9263 8.42483 8.75408
RightArm  -68.6314 75.5937 -0.382759
RightForeArm  -46.0485 11.93 4.33077
RightHand  -2.95633 12.3143 -19.5667
LeftUpLeg  -37.7639 14.8409 -9.35667
LeftLeg  14.6128 -3.67558 -2.66204
LeftFoot  8.46658 -1.21233 6.63886
LeftToes  1.45487e-011 -6.19069e-011 1.65092e-011
